<?xml version="1.0" encoding="utf-8"?>
<!-- Generator: Adobe Illustrator 24.0.3, SVG Export Plug-In . SVG Version: 6.00 Build 0)  -->
<!DOCTYPE svg PUBLIC "-//W3C//DTD SVG 1.1//EN" "http://www.w3.org/Graphics/SVG/1.1/DTD/svg11.dtd" [
	<!ENTITY ns_extend "http://ns.adobe.com/Extensibility/1.0/">
	<!ENTITY ns_ai "http://ns.adobe.com/AdobeIllustrator/10.0/">
	<!ENTITY ns_graphs "http://ns.adobe.com/Graphs/1.0/">
	<!ENTITY ns_vars "http://ns.adobe.com/Variables/1.0/">
	<!ENTITY ns_imrep "http://ns.adobe.com/ImageReplacement/1.0/">
	<!ENTITY ns_sfw "http://ns.adobe.com/SaveForWeb/1.0/">
	<!ENTITY ns_custom "http://ns.adobe.com/GenericCustomNamespace/1.0/">
	<!ENTITY ns_adobe_xpath "http://ns.adobe.com/XPath/1.0/">
]>
<svg version="1.1" id="Layer_1" xmlns:x="&ns_extend;" xmlns:i="&ns_ai;" xmlns:graph="&ns_graphs;"
	 xmlns="http://www.w3.org/2000/svg" xmlns:xlink="http://www.w3.org/1999/xlink" x="0px" y="0px" viewBox="0 0 176 177.9"
	 style="enable-background:new 0 0 176 177.9;" xml:space="preserve">
<style type="text/css">
	.st0{fill-rule:evenodd;clip-rule:evenodd;fill:#003F7F;}
	.st1{fill:#003F7F;}
</style>
<metadata>
	<sfw  xmlns="&ns_sfw;">
		<slices></slices>
		<sliceSourceBounds  bottomLeftOrigin="true" height="177.9" width="176" x="8" y="7.1"></sliceSourceBounds>
	</sfw>
</metadata>
<g>
	<path class="st0" d="M86,9.9c-47.4,0-86,37.7-86,84c0,46.3,38.6,84,86,84s86-37.7,86-84c0-20-6.9-37.9-18.7-52.6l-8.1,9.4
		c10.3,12.3,14.3,26,14.3,43.2c0,39.7-32.8,71.7-73.4,71.7c-40.6,0-73.4-32.1-73.4-71.7c0-39.7,32.8-71.7,73.4-71.7
		c12.9,0,22.5,1.8,33,7.5l7.7-9.9C114.3,13.1,101,9.9,86,9.9L86,9.9z"/>
	<path class="st1" d="M54.1,82.8c3.5,0,6.1,2.8,7.9,8.3c3.6,10.4,6.1,15.6,7.6,15.6c1.2,0,2.4-0.9,3.6-2.6
		c25-39.1,48.1-70.7,69.3-94.8C148,3.1,156.8,0,168.8,0c2.8,0,4.8,0.3,5.7,0.8c1,0.5,1.5,1.2,1.5,2c0,1.2-1.5,3.6-4.4,7.2
		c-34.3,40.3-66.1,82.8-95.5,127.6c-2,3.1-6.2,4.7-12.5,4.7c-6.4,0-10.2-0.3-11.3-0.8c-3-1.3-6.6-7.9-10.7-19.9
		c-4.6-13.3-6.9-21.6-6.9-25c0-3.6,3.1-7.2,9.3-10.5C47.8,83.9,51.2,82.8,54.1,82.8"/>
</g>
</svg>
